<svg width="520" height="242" viewBox="0 0 520 242" fill="none" xmlns="http://www.w3.org/2000/svg">
<g style="mix-blend-mode:lighten" filter="url(#filter0_d_2_27)">
<path d="M106.656 118.219L74.767 119.071C74.4356 116.798 73.536 114.786 72.0682 113.034C70.6004 111.235 68.6828 109.838 66.3153 108.844C63.9953 107.802 61.2964 107.281 58.2188 107.281C54.1941 107.281 50.7614 108.086 47.9205 109.696C45.1269 111.306 43.7538 113.484 43.8011 116.23C43.7538 118.361 44.6061 120.207 46.358 121.77C48.1572 123.332 51.3532 124.587 55.946 125.534L76.9688 129.511C87.8589 131.595 95.9555 135.051 101.259 139.881C106.609 144.71 109.308 151.102 109.355 159.057C109.308 166.538 107.082 173.048 102.679 178.588C98.3229 184.128 92.357 188.437 84.7812 191.514C77.2055 194.545 68.5407 196.06 58.7869 196.06C43.2093 196.06 30.9223 192.864 21.9261 186.472C12.9773 180.032 7.86364 171.415 6.58523 160.619L40.8892 159.767C41.6468 163.744 43.6117 166.775 46.7841 168.858C49.9564 170.941 54.0047 171.983 58.929 171.983C63.3797 171.983 67.0019 171.154 69.7955 169.497C72.589 167.84 74.0095 165.638 74.0568 162.892C74.0095 160.43 72.9205 158.465 70.7898 156.997C68.6591 155.482 65.321 154.298 60.7756 153.446L41.7415 149.824C30.804 147.835 22.66 144.166 17.3097 138.815C11.9593 133.418 9.30777 126.552 9.35511 118.219C9.30777 110.927 11.2491 104.701 15.179 99.5398C19.1089 94.3314 24.696 90.3542 31.9403 87.608C39.1847 84.8617 47.7311 83.4886 57.5795 83.4886C72.3523 83.4886 84 86.59 92.5227 92.7926C101.045 98.9479 105.757 107.423 106.656 118.219ZM204.153 131.784V194H169.423V84.9091H202.448V104.938H203.656C206.07 98.2614 210.19 93.0294 216.013 89.2415C221.837 85.4062 228.774 83.4886 236.823 83.4886C244.494 83.4886 251.146 85.2169 256.781 88.6733C262.462 92.0824 266.866 96.8646 269.991 103.02C273.163 109.128 274.726 116.277 274.678 124.469V194H239.948V131.287C239.996 125.226 238.457 120.491 235.332 117.082C232.254 113.673 227.969 111.969 222.477 111.969C218.831 111.969 215.611 112.774 212.817 114.384C210.071 115.946 207.941 118.195 206.425 121.131C204.958 124.066 204.2 127.617 204.153 131.784ZM326.933 195.847C319.973 195.847 313.794 194.687 308.396 192.366C303.046 189.999 298.808 186.448 295.683 181.713C292.606 176.931 291.067 170.941 291.067 163.744C291.067 157.684 292.132 152.57 294.263 148.403C296.393 144.237 299.329 140.851 303.07 138.247C306.81 135.643 311.119 133.678 315.996 132.352C320.873 130.979 326.081 130.056 331.621 129.582C337.823 129.014 342.819 128.422 346.607 127.807C350.394 127.144 353.141 126.221 354.845 125.037C356.597 123.806 357.473 122.078 357.473 119.852V119.497C357.473 115.851 356.218 113.034 353.709 111.045C351.199 109.057 347.814 108.062 343.553 108.062C338.96 108.062 335.267 109.057 332.473 111.045C329.679 113.034 327.904 115.78 327.146 119.284L295.115 118.148C296.062 111.519 298.5 105.6 302.43 100.392C306.408 95.1364 311.853 91.017 318.766 88.0341C325.726 85.0038 334.083 83.4886 343.837 83.4886C350.797 83.4886 357.213 84.3172 363.084 85.9744C368.955 87.5843 374.069 89.9517 378.425 93.0767C382.781 96.1544 386.143 99.9422 388.51 104.44C390.925 108.938 392.132 114.076 392.132 119.852V194H359.462V178.801H358.609C356.668 182.494 354.182 185.619 351.152 188.176C348.169 190.733 344.642 192.651 340.57 193.929C336.545 195.207 332 195.847 326.933 195.847ZM337.658 173.119C341.398 173.119 344.76 172.362 347.743 170.847C350.773 169.331 353.188 167.248 354.987 164.597C356.786 161.898 357.686 158.773 357.686 155.222V144.852C356.692 145.373 355.484 145.847 354.064 146.273C352.691 146.699 351.176 147.101 349.518 147.48C347.861 147.859 346.157 148.19 344.405 148.474C342.653 148.759 340.972 149.019 339.362 149.256C336.095 149.777 333.302 150.581 330.982 151.67C328.709 152.759 326.957 154.18 325.726 155.932C324.542 157.636 323.95 159.672 323.95 162.04C323.95 165.638 325.229 168.384 327.786 170.278C330.39 172.172 333.68 173.119 337.658 173.119ZM515.286 84.9091L477.857 194H438.084L400.726 84.9091H437.303L457.402 160.051H458.538L478.709 84.9091H515.286Z" fill="url(#paint0_linear_2_27)"/>
</g>
<g style="mix-blend-mode:lighten">
<rect x="119" y="86" width="34" height="108" fill="url(#paint1_linear_2_27)"/>
</g>
<defs>
<filter id="filter0_d_2_27" x="2.58523" y="83.4886" width="516.7" height="120.571" filterUnits="userSpaceOnUse" color-interpolation-filters="sRGB">
<feFlood flood-opacity="0" result="BackgroundImageFix"/>
<feColorMatrix in="SourceAlpha" type="matrix" values="0 0 0 0 0 0 0 0 0 0 0 0 0 0 0 0 0 0 127 0" result="hardAlpha"/>
<feOffset dy="4"/>
<feGaussianBlur stdDeviation="2"/>
<feComposite in2="hardAlpha" operator="out"/>
<feColorMatrix type="matrix" values="0 0 0 0 0 0 0 0 0 0 0 0 0 0 0 0 0 0 0.25 0"/>
<feBlend mode="normal" in2="BackgroundImageFix" result="effect1_dropShadow_2_27"/>
<feBlend mode="normal" in="SourceGraphic" in2="effect1_dropShadow_2_27" result="shape"/>
</filter>
<linearGradient id="paint0_linear_2_27" x1="259" y1="83" x2="263.909" y2="193.782" gradientUnits="userSpaceOnUse">
<stop stop-color="white"/>
<stop offset="1" stop-color="#3B82F6"/>
</linearGradient>
<linearGradient id="paint1_linear_2_27" x1="136" y1="86" x2="136" y2="194" gradientUnits="userSpaceOnUse">
<stop stop-color="white"/>
<stop offset="1" stop-color="#3B82F6"/>
</linearGradient>
</defs>
</svg>
